<svg width="100%" viewBox="0 0 680 200" role="img" xmlns="http://www.w3.org/2000/svg">
  <title>Vio — Educador Financeiro com IA</title>
  <desc>Banner do projeto Vio, agente financeiro com IA Generativa rodando localmente via Ollama e Streamlit</desc>

  <rect width="680" height="200" fill="#0a2e1f"/>

  <line x1="0" y1="40" x2="680" y2="40" stroke="#1D9E75" stroke-width="0.3" stroke-opacity="0.2"/>
  <line x1="0" y1="80" x2="680" y2="80" stroke="#1D9E75" stroke-width="0.3" stroke-opacity="0.2"/>
  <line x1="0" y1="120" x2="680" y2="120" stroke="#1D9E75" stroke-width="0.3" stroke-opacity="0.2"/>
  <line x1="0" y1="160" x2="680" y2="160" stroke="#1D9E75" stroke-width="0.3" stroke-opacity="0.2"/>
  <line x1="136" y1="0" x2="136" y2="200" stroke="#1D9E75" stroke-width="0.3" stroke-opacity="0.2"/>
  <line x1="272" y1="0" x2="272" y2="200" stroke="#1D9E75" stroke-width="0.3" stroke-opacity="0.2"/>
  <line x1="408" y1="0" x2="408" y2="200" stroke="#1D9E75" stroke-width="0.3" stroke-opacity="0.2"/>
  <line x1="544" y1="0" x2="544" y2="200" stroke="#1D9E75" stroke-width="0.3" stroke-opacity="0.2"/>

  <polyline points="440,150 470,130 500,140 530,100 560,110 590,75 620,80 650,55" fill="none" stroke="#1D9E75" stroke-width="1.5" stroke-opacity="0.5"/>
  <circle cx="650" cy="55" r="4" fill="#1D9E75" fill-opacity="0.8"/>

  <circle cx="600" cy="155" r="22" fill="none" stroke="#5DCAA5" stroke-width="1" stroke-opacity="0.3"/>
  <circle cx="600" cy="155" r="14" fill="none" stroke="#5DCAA5" stroke-width="0.5" stroke-opacity="0.25"/>
  <circle cx="640" cy="135" r="16" fill="none" stroke="#5DCAA5" stroke-width="1" stroke-opacity="0.2"/>

  <rect x="40" y="60" width="3" height="80" fill="#1D9E75" rx="2"/>

  <rect x="52" y="58" width="110" height="20" rx="10" fill="#1D9E75" fill-opacity="0.2"/>
  <text x="107" y="72" font-family="monospace" font-size="10" fill="#5DCAA5" text-anchor="middle" letter-spacing="1">IA GENERATIVA</text>

  <text x="52" y="110" font-family="Georgia, serif" font-size="42" font-weight="700" fill="#ffffff" letter-spacing="-1">Vio</text>
  <text x="108" y="110" font-family="Georgia, serif" font-size="42" font-weight="300" fill="#9FE1CB" letter-spacing="-1"> — Educador Financeiro</text>

  <text x="52" y="135" font-family="monospace" font-size="12" fill="#5DCAA5" fill-opacity="0.85">Agente local com IA · Ollama + Streamlit · Privacidade total</text>

  <rect x="52" y="152" width="60" height="18" rx="4" fill="#0F6E56"/>
  <text x="82" y="164" font-family="monospace" font-size="10" fill="#9FE1CB" text-anchor="middle">Python</text>

  <rect x="120" y="152" width="72" height="18" rx="4" fill="#0F6E56"/>
  <text x="156" y="164" font-family="monospace" font-size="10" fill="#9FE1CB" text-anchor="middle">Streamlit</text>

  <rect x="200" y="152" width="56" height="18" rx="4" fill="#0F6E56"/>
  <text x="228" y="164" font-family="monospace" font-size="10" fill="#9FE1CB" text-anchor="middle">Ollama</text>

  <rect x="264" y="152" width="80" height="18" rx="4" fill="#0F6E56"/>
  <text x="304" y="164" font-family="monospace" font-size="10" fill="#9FE1CB" text-anchor="middle">100% Local</text>
</svg>
